<?xml version="1.0" encoding="UTF-8"?>
<svg id="Layer_1" data-name="Layer 1" xmlns="http://www.w3.org/2000/svg" viewBox="0 0 1046.51 912.52">
  <path d="M793.83,28.36c5-18.64-6.17-29.81-24.81-24.81l-307.09,82.28c-18.64,5-22.73,20.25-9.08,33.9l224.81,224.81c13.65,13.65,28.9,9.56,33.9-9.08L793.83,28.36Z"/>
  <path d="M171.52,324.24c-5,18.64,6.17,29.81,24.81,24.81l307.09-82.29c18.64-5,22.73-20.25,9.08-33.9L287.7,8.07c-13.65-13.65-28.9-9.56-33.9,9.08l-82.28,307.09Z"/>
  <path d="M232.88,694.51c13.65,13.65,28.9,9.56,33.9-9.08l82.28-307.09c5-18.64-6.17-29.81-24.81-24.81L17.15,435.81c-18.64,5-22.73,20.25-9.08,33.9l224.81,224.8Z"/>
  <path d="M252.71,884.22c-5,18.64,6.17,29.81,24.81,24.81l307.09-82.28c18.64-5,22.73-20.25,9.08-33.9l-224.81-224.81c-13.65-13.65-28.9-9.56-33.9,9.08l-82.28,307.09Z"/>
  <path d="M758.81,904.45c13.65,13.65,28.9,9.56,33.9-9.08l82.28-307.09c5-18.64-6.17-29.81-24.81-24.81l-307.09,82.29c-18.64,5-22.73,20.25-9.08,33.9l224.81,224.8Z"/>
  <path d="M1029.36,477.47c18.64-5,22.73-20.25,9.08-33.9l-224.81-224.81c-13.65-13.65-28.9-9.56-33.9,9.08l-82.28,307.09c-5,18.64,6.17,29.81,24.81,24.81l307.09-82.29Z"/>
</svg>