<?xml version="1.0" encoding="UTF-8"?>
<svg id="Layer_1" data-name="Layer 1" xmlns="http://www.w3.org/2000/svg" viewBox="0 0 679.95 407.24">
  <path d="M34.09,385.59c14.74-5.21,31.01-12.28,48.83-21.19,17.81-8.9,36.08-19.19,54.82-30.87,18.73-11.66,36.08-24.88,52.06-39.62,27.64-25.8,48.05-53.9,61.27-84.3,13.2-30.4,19.81-61.57,19.81-93.52s-7.99-58.65-23.96-76.47c-15.98-17.81-38.7-26.72-68.18-26.72s-52.06,5.53-67.72,16.58-23.49,25.5-23.49,43.3c0,11.06,1.84,21.05,5.53,29.94,3.69,8.91,5.53,17.36,5.53,25.34,0,7.37-3.38,13.98-10.14,19.81-6.77,5.84-16.9,8.75-30.4,8.75-14.74,0-25.34-3.53-31.79-10.6-6.45-7.05-9.67-16.43-9.67-28.1,0-14.12,2.91-28.1,8.75-41.92,5.83-13.82,15.2-26.4,28.1-37.78,12.9-11.36,29.94-20.57,51.14-27.64C125.76,3.54,151.4,0,181.51,0c32.55,0,60.03,3.54,82.46,10.6,22.41,7.07,40.84,16.44,55.28,28.1,14.42,11.68,24.88,24.88,31.33,39.62,6.45,14.74,9.67,30.1,9.67,46.07,0,20.89-5.38,41.16-16.12,60.81-10.75,19.67-25.04,38.39-42.84,56.2-17.82,17.82-37.93,34.55-60.35,50.21-22.43,15.66-45.3,29.94-68.64,42.84-23.35,12.9-45.92,24.27-67.72,34.09-21.81,9.83-41,17.82-57.58,23.96l1.84,1.84h170.45c21.49,0,40.08-1.06,55.74-3.22,15.66-2.14,28.86-6.45,39.62-12.9,10.74-6.45,19.49-15.5,26.26-27.18,6.75-11.66,11.98-26.72,15.66-45.15h9.21v101.35H0v-11.06c7.98-1.84,19.35-5.37,34.09-10.59Z"/>
  <path d="M456.98,24.88v-12.9h222.97v12.9h-71.87v369.46h71.87v12.9h-222.97v-12.9h71.87V24.88h-71.87Z"/>
</svg>