<?xml version="1.0" encoding="UTF-8"?>
<svg id="Layer_1" data-name="Layer 1" xmlns="http://www.w3.org/2000/svg" viewBox="0 0 863.81 850.84">
  <text/>
  <g>
    <path d="M118.45,638.81l84.79-59.26c42.77-29.63,78.16-56.79,106.18-81.48,28.01-24.69,48.83-48.25,62.47-70.68,2.44-4.02,4.66-8.05,6.67-12.08l-144.37-129.46c-2.5,1.26-4.93,2.6-7.3,4.04-19.51,11.84-35.89,28.76-49.15,50.77h-.37c11.73-25.23,27.99-45.91,48.75-62.06L0,75.84v775s181.03-162.34,181.03-162.34h-75.34l12.76-49.69Z"/>
    <path d="M421.22,453.57c-11.98,9.49-25.36,19.13-40.15,28.91-23.51,15.54-50.4,32.05-80.66,49.54l-155.17,90.13h109.79l176.66-158.42v-.76s-10.47-9.39-10.47-9.39Z"/>
    <path d="M492.87,688.2c14.5-1.64,25.83-4.01,33.96-7.1,8.12-3.09,14.5-7.82,19.13-14.2,4.63-6.38,8.44-15.43,11.44-27.16l92.29-358.04c.75-2.05-.5-2.88-3.75-2.47l-55.9,8.64v-.31l58.07-17.65-216.42-194.07v176.98c18.04,8.39,32.17,19.71,42.42,33.97,11.01,15.33,16.51,33.29,16.51,53.86,0,18.11-4.19,34.98-12.57,50.62-8.38,15.64-20.76,30.87-37.14,45.68-2.95,2.67-6.03,5.36-9.22,8.05v17.96l.43.38-.43.38v387.12l181.03-162.34h-119.85v-.31Z"/>
    <path d="M652.81,652.56l211.01-189.22-132.36-118.7-76.13,295.09c-1.19,4.69-2.02,8.96-2.52,12.82Z"/>
    <path d="M298.91,272.13c27.76,0,50.27,7.56,67.53,22.69,17.26,15.13,25.88,36.68,25.88,64.66,0,18.74-4.6,37.35-13.78,55.82l42.68,38.27c3.62-2.87,7.11-5.73,10.47-8.57v-192.18c-1.35-.63-2.71-1.24-4.1-1.83-20.01-8.54-43.52-12.81-70.53-12.81-41.77,0-78.29,8.75-109.55,26.24-7.61,4.25-14.74,8.99-21.41,14.18l8.08,7.24c18.1-9.13,39.68-13.71,64.73-13.71Z"/>
    <polygon points="410.33 688.5 426.84 622.14 255.03 622.14 181.03 688.5 410.33 688.5"/>
    <path d="M652.81,652.56l-40.08,35.94h82.37v-.31c-20.01-2.67-32.77-6.99-38.27-12.96-4.05-4.38-5.38-11.95-4.02-22.67Z"/>
    <polygon points="758.12 241.27 742.36 241.27 648.11 269.91 731.45 344.65 758.12 241.27"/>
  </g>
</svg>