<?xml version="1.0" encoding="UTF-8"?>
<svg id="Layer_1" data-name="Layer 1" xmlns="http://www.w3.org/2000/svg" viewBox="0 0 1080 1043.15">
  <g>
    <path d="M10.45,863.96l481.93,178.18c10.45,3.86,21.55-3.87,21.55-15.01v-42.64c0-5.9-3.25-11.32-8.45-14.11L23.55,712.33C12.89,706.62,0,714.34,0,726.43v122.52c0,6.7,4.17,12.68,10.45,15.01Z"/>
    <path d="M7.96,651.54l481.93,280.16c10.67,6.2,24.04-1.49,24.04-13.83v-81.17c0-4.74-2.1-9.23-5.73-12.27L26.27,420.88C15.86,412.16,0,419.56,0,433.14v204.56c0,5.7,3.03,10.97,7.96,13.83Z"/>
    <path d="M4.96,314.21l481.93,459.61c10.18,9.71,27.04,2.49,27.04-11.58v-144.17S28.54,6.09,28.54,6.09C19.12-5.79,0,.87,0,16.03v286.6c0,4.38,1.79,8.56,4.96,11.58Z"/>
  </g>
  <g>
    <path d="M1069.55,863.96l-481.93,178.18c-10.45,3.86-21.55-3.87-21.55-15.01v-42.64c0-5.9,3.25-11.32,8.45-14.11l481.93-258.06c10.66-5.71,23.55,2.01,23.55,14.11v122.52c0,6.7-4.17,12.68-10.45,15.01Z"/>
    <path d="M1072.04,651.54l-481.93,280.16c-10.67,6.2-24.04-1.49-24.04-13.83v-81.17c0-4.74,2.1-9.23,5.73-12.27l481.93-403.56c10.41-8.72,26.27-1.32,26.27,12.27v204.56c0,5.7-3.03,10.97-7.96,13.83Z"/>
    <path d="M1075.04,314.21l-481.93,459.61c-10.18,9.71-27.04,2.49-27.04-11.58v-144.17S1051.46,6.09,1051.46,6.09c9.42-11.88,28.54-5.22,28.54,9.94v286.6c0,4.38-1.79,8.56-4.96,11.58Z"/>
  </g>
</svg>