<?xml version="1.0" encoding="UTF-8"?>
<svg id="Layer_1" data-name="Layer 1" xmlns="http://www.w3.org/2000/svg" viewBox="0 0 1080 1080">
  <path d="M4.96,314.21l508.97,180.31v-94.71L28.54,6.09C19.12-5.79,0,.87,0,16.03v286.6c0,4.38,1.79,8.56,4.96,11.58Z"/>
  <polygon points="513.93 561.2 0 684.2 0 395.8 513.93 522.5 513.93 561.2"/>
  <path d="M4.96,765.79l508.97-180.31v94.71L28.54,1073.91C19.12,1085.79,0,1079.13,0,1063.97v-286.6c0-4.38,1.79-8.56,4.96-11.58Z"/>
  <path d="M1075.04,314.21l-508.97,180.31v-94.71S1051.46,6.09,1051.46,6.09c9.42-11.88,28.54-5.22,28.54,9.94v286.6c0,4.38-1.79,8.56-4.96,11.58Z"/>
  <polygon points="566.07 561.2 1080 684.2 1080 395.8 566.07 522.5 566.07 561.2"/>
  <path d="M1075.04,765.79l-508.97-180.31v94.71s485.39,393.71,485.39,393.71c9.42,11.88,28.54,5.22,28.54-9.94v-286.6c0-4.38-1.79-8.56-4.96-11.58Z"/>
</svg>