<?xml version="1.0" encoding="UTF-8"?>
<svg id="Layer_1" xmlns="http://www.w3.org/2000/svg" version="1.1" viewBox="0 0 576.79 509.31">
  <!-- Generator: Adobe Illustrator 29.8.2, SVG Export Plug-In . SVG Version: 2.1.1 Build 3)  -->
  <defs>
    <style>
      .st0 {
        fill: none;
        stroke-linecap: round;
        stroke-linejoin: round;
        stroke-width: 62.86px;
      }

      .st0, .st1, .st2 {
        stroke: #000;
      }

      .st1 {
        stroke-width: 26.04px;
      }

      .st1, .st2 {
        stroke-miterlimit: 10;
      }

      .st2 {
        stroke-width: 13.47px;
      }
    </style>
  </defs>
  <path class="st1" d="M394.86,27.59l16.87,45.02c14.27,38.07,44.45,68.01,82.64,81.96l45.58,16.66c13.11,4.79,13.11,23.33,0,28.12l-45.58,16.66c-38.19,13.95-68.37,43.89-82.64,81.96l-16.87,45.02c-4.86,12.96-23.18,12.96-28.04,0l-16.87-45.02c-14.27-38.07-44.45-68.01-82.64-81.96l-45.58-16.66c-13.11-4.79-13.11-23.33,0-28.12l45.58-16.66c38.19-13.95,68.37-43.89,82.64-81.96l16.87-45.02c4.86-12.96,23.18-12.96,28.04,0h0Z"/>
  <path class="st0" d="M405.95,413.01c-81.91,81.91-214.72,81.91-296.63,0"/>
  <path class="st0" d="M47.89,269.5c0-115.84,93.91-209.75,209.75-209.75"/>
  <path class="st2" d="M76.61,308.14l3.78,10.08c3.27,8.73,10.19,15.59,18.94,18.79l10.2,3.73c3.01,1.1,3.01,5.35,0,6.45l-10.2,3.73c-8.76,3.2-15.67,10.06-18.94,18.79l-3.78,10.08c-1.11,2.97-5.32,2.97-6.43,0l-3.78-10.08c-3.27-8.73-10.19-15.59-18.94-18.79l-10.2-3.73c-3.01-1.1-3.01-5.35,0-6.45l10.2-3.73c8.76-3.2,15.67-10.06,18.94-18.79l3.78-10.08c1.11-2.97,5.32-2.97,6.43,0Z"/>
</svg>