<?xml version="1.0" encoding="UTF-8"?>
<svg id="Layer_1" xmlns="http://www.w3.org/2000/svg" version="1.1" viewBox="0 0 576.79 509.31">
  <!-- Generator: Adobe Illustrator 29.8.2, SVG Export Plug-In . SVG Version: 2.1.1 Build 3)  -->
  <defs>
    <style>
      .st0 {
        fill: none;
        stroke-width: 24.35px;
      }

      .st0, .st1 {
        stroke: #000;
        stroke-miterlimit: 10;
      }

      .st1 {
        stroke-width: 14.29px;
      }
    </style>
  </defs>
  <path class="st1" d="M338.35,248.01l11.62,4.3c2.17.8,2.17,3.87,0,4.68l-11.62,4.3c-20.06,7.42-35.89,23.24-43.31,43.31l-4.3,11.62c-.8,2.17-3.87,2.17-4.68,0l-4.3-11.62c-7.42-20.06-23.24-35.89-43.31-43.31l-11.62-4.3c-2.17-.8-2.17-3.87,0-4.68l11.62-4.3c20.06-7.42,35.89-23.24,43.31-43.31l4.3-11.62c.8-2.17,3.87-2.17,4.68,0l4.3,11.62c7.42,20.06,23.24,35.89,43.31,43.31h0Z"/>
  <g>
    <path class="st0" d="M442.1,254.65c25.92-57.71,25.32-114.06-7.16-146.54-32.48-32.48-88.83-33.08-146.54-7.16,30.84,13.85,62.07,35.27,90.25,63.45,28.19,28.19,49.6,59.41,63.45,90.25h0Z"/>
    <path class="st0" d="M134.69,254.66c-25.92,57.71-25.32,114.06,7.16,146.54,32.48,32.48,88.83,33.08,146.54,7.16-30.84-13.85-62.07-35.27-90.25-63.45-28.19-28.19-49.6-59.41-63.45-90.25h0Z"/>
    <path class="st0" d="M378.64,344.9c-28.19,28.19-59.41,49.6-90.25,63.45,57.71,25.92,114.06,25.32,146.54-7.16,32.48-32.48,33.08-88.83,7.16-146.54-13.85,30.84-35.27,62.07-63.45,90.25h0Z"/>
    <path class="st0" d="M288.39,100.95c-57.7-25.92-114.05-25.32-146.54,7.16-32.48,32.48-33.08,88.83-7.16,146.54,13.85-30.84,35.27-62.07,63.45-90.25,28.19-28.19,59.41-49.6,90.25-63.45h0Z"/>
    <path class="st0" d="M442.1,254.65c-13.85-30.84-35.27-62.07-63.45-90.25-28.19-28.19-59.41-49.6-90.25-63.45-30.84,13.85-62.07,35.27-90.25,63.45s-49.6,59.41-63.45,90.25c13.85,30.84,35.27,62.07,63.45,90.25,28.19,28.19,59.41,49.6,90.25,63.45,30.84-13.85,62.07-35.27,90.25-63.45,28.19-28.19,49.6-59.41,63.45-90.25Z"/>
  </g>
</svg>