<?xml version="1.0" encoding="UTF-8"?>
<svg id="Layer_1" xmlns="http://www.w3.org/2000/svg" version="1.1" viewBox="0 0 576.79 509.31">
  <!-- Generator: Adobe Illustrator 29.8.2, SVG Export Plug-In . SVG Version: 2.1.1 Build 3)  -->
  <defs>
    <style>
      .st0 {
        fill: none;
        stroke-width: 27.08px;
      }

      .st0, .st1 {
        stroke: #000;
        stroke-miterlimit: 10;
      }

      .st1 {
        stroke-width: 18.92px;
      }
    </style>
  </defs>
  <path class="st1" d="M354.51,245.87l15.38,5.69c2.87,1.06,2.87,5.12,0,6.19l-15.38,5.69c-26.55,9.82-47.51,30.76-57.33,57.33l-5.69,15.38c-1.06,2.87-5.12,2.87-6.19,0l-5.69-15.38c-9.82-26.55-30.76-47.51-57.33-57.33l-15.38-5.69c-2.87-1.06-2.87-5.12,0-6.19l15.38-5.69c26.55-9.82,47.51-30.76,57.33-57.33l5.69-15.38c1.06-2.87,5.12-2.87,6.19,0l5.69,15.38c9.82,26.55,30.76,47.51,57.33,57.33h0Z"/>
  <ellipse class="st0" cx="288.39" cy="254.65" rx="182" ry="280" transform="translate(-95.6 278.51) rotate(-45)"/>
  <ellipse class="st0" cx="288.39" cy="254.65" rx="280" ry="182" transform="translate(-95.6 278.51) rotate(-45)"/>
</svg>