<?xml version="1.0" encoding="UTF-8"?>
<svg id="Layer_1" data-name="Layer 1" xmlns="http://www.w3.org/2000/svg" viewBox="0 0 576.79 509.31">
  <defs>
    <style>
      .cls-1 {
        fill: none;
        stroke: #000;
        stroke-linecap: round;
        stroke-linejoin: round;
        stroke-width: 35.73px;
      }
    </style>
  </defs>
  <path d="M404.26,10.82l18.79,50.14c15.89,42.4,49.5,75.74,92.03,91.27l50.76,18.55c14.6,5.33,14.6,25.98,0,31.31l-50.76,18.55c-42.53,15.54-76.14,48.88-92.03,91.27l-18.79,50.14c-5.41,14.43-25.81,14.43-31.22,0l-18.79-50.14c-15.89-42.4-49.5-75.74-92.03-91.27l-50.76-18.55c-14.6-5.33-14.6-25.98,0-31.31l50.76-18.55c42.53-15.54,76.14-48.88,92.03-91.27l18.79-50.14c5.41-14.43,25.81-14.43,31.22,0Z"/>
  <path class="cls-1" d="M416.61,423.03c-91.22,91.22-239.11,91.22-330.33,0"/>
  <path class="cls-1" d="M17.87,263.22c0-129,104.58-233.58,233.58-233.58"/>
  <path d="M49.85,306.25l4.21,11.22c3.64,9.72,11.35,17.36,21.09,20.92l11.36,4.15c3.35,1.22,3.35,5.96,0,7.18l-11.36,4.15c-9.75,3.56-17.45,11.2-21.09,20.92l-4.21,11.22c-1.24,3.31-5.92,3.31-7.16,0l-4.21-11.22c-3.64-9.72-11.35-17.36-21.09-20.92l-11.36-4.15c-3.35-1.22-3.35-5.96,0-7.18l11.36-4.15c9.75-3.56,17.45-11.2,21.09-20.92l4.21-11.22c1.24-3.31,5.92-3.31,7.16,0Z"/>
</svg>